<svg xmlns="http://www.w3.org/2000/svg" xmlns:xlink="http://www.w3.org/1999/xlink" viewBox="0 0 1468 271"><g fill="#005aa0"><path d="M676.3 48.5v47c0 6.6-.3 7-10.5 9.7v2.5h40.6v-2.5c-10.1-2.7-10.5-3.2-10.5-9.7V36.3h-30.1v2.5c10.2 2.7 10.5 3.1 10.5 9.7zm32.4 7.8h5.6c6.6 0 7.1-.5 7.1-7.1v-5.8c0-6.6-.5-7.1-7.1-7.1h-5.6c-6.6 0-7.1.5-7.1 7.1v5.8c0 6.6.5 7.1 7.1 7.1zm245.7 39.2V36.3h-30.1v2.5c10.2 2.7 10.5 3.1 10.5 9.7v47c0 4.8-.2 6.3-4.3 7.9-2.1.7-4.5 1.1-5.5.9-3.5-.6-5-1.5-7.3-4.6l-26-37.9s11.9-14 16.1-17.9c2.8-2.7 5-4.3 11.5-5v-2.5h-26v2.5c5.6.1 8.1.7 8.1 2.2 0 .7-.8 1.8-2.4 3.2l-24.3 25.5 20.3 30.4c.6 1 1 1.7 1 2.2 0 1.5-2.7 1.5-8.1 2.8v2.5h77.2v-2.5c-10.2-2.7-10.7-3.3-10.7-9.7zm18.5-59.2h-5.6c-6.6 0-7.1.5-7.1 7.1v5.8c0 6.6.5 7.1 7.1 7.1h5.6c6.6 0 7.1-.5 7.1-7.1v-5.8c0-6.6-.5-7.1-7.1-7.1zm-654.4 64.4h-8.2V23.3c0-6.6.3-7 10.5-9.7v-2.5h-41.4v2.5c10.1 2.7 10.5 3.2 10.5 9.7v72.2c0 6.6-.3 7-10.5 9.7v2.5h71.4l1.7-30.8H350c-9.6 24.3-17.6 23.8-31.5 23.8z"/><use xlink:href="#B"/><path d="M373.1 26.6h4.8c5.6 0 6-.4 6-6v-4.9c0-5.6-.4-6-6-6h-4.8c-5.6 0-6 .4-6 6v4.9c-.1 5.6.4 6 6 6zm5.8 43.3c-16 0-21.8 5.2-21.8 19.9 0 15.1 5.5 19.3 18.5 19.3 8.4 0 16.8-2.8 21.3-5.6 2 4.2 6.7 5.6 13.6 5.6 3.7 0 7.7-.4 12.4-1 1-.1 2.5-.4 5.1-.4h32.5v-2.5c-10.1-2.7-10.5-3.2-10.5-9.7V46.4c5.3-.4 10.5-.8 15.7-.8 7.4 0 8.3 1.7 8.3 8.7v41.3c0 6.6-.3 7-10.5 9.7v2.5H504v-2.5c-10.1-2.7-10.5-3.2-10.5-9.7V53.2c0-15-10.8-18.3-19.9-18.3-8.3 0-20.2 3.8-26.5 9.4v-8h-27.3v2.5c10.2 2.7 10.5 3.1 10.5 9.7v47c0 4.2-.1 5.9-2.9 7.3-1.9.9-3.4 1-4.1 1-6.7.5-7.9-2.8-7.9-8.7V56.3c0-14-8-21.4-21.8-21.4-18.3 0-34.7 5.3-34.7 19 0 6 2.7 9.4 9.7 9.4s9.8-4.2 9.8-9.8c0-5.5-2-7-9.1-8.1V45s7.4-.4 12.6-.4c13 0 14 .6 14 14.6V70h-17zm17 28.4v1.1c-2.7.8-5.7 1.3-8.5 1.3-7.4 0-9.8-1.7-9.8-11.2 0-12.9.7-13.9 18.3-14v22.8zm134.6 4.2c-8.8 0-16.4-3.6-22.8-17.6h-2.5l.4 20.9c3.8 1.1 15.3 3.4 23.9 3.4 17.2 0 26.5-8.4 26.5-22.7 0-28.1-36.8-21-36.8-36.5 0-5.9 4.9-8.4 10.8-8.4 8.3 0 13.6 2.9 19.2 15.3h2.5l-1-20.2S540.2 35 532.8 35c-18.9 0-27.6 7-27.6 22 0 29.4 36.2 20.7 36.2 36.5 0 5.6-4.7 9-10.9 9zm24.3 5.2h40.6v-2.5c-10.1-2.7-10.5-3.2-10.5-9.7V43l15.7-3.6v-3.2h-15.7V23.6c0-8.3 2-8.7 8.1-8.7h9.7v-1.7c-6-5.6-13.4-7.7-20-7.7-9.8 0-17.4 5.5-17.4 18.5v71.5c0 6.6-.3 7-10.5 9.7v2.5z"/><use xlink:href="#B" x="242.7"/><use xlink:href="#B" x="216"/><path d="M632.5 109.1c25.2 0 33.4-3.6 33.4-36.4 0-32.7-7.4-37.8-33.4-37.8-25.2 0-35.4 4.9-35.4 37.8 0 32 10.3 36.4 35.4 36.4zm0-68.2c11.9 0 12.5 3.2 12.5 31.8 0 29.3-1.3 30.4-12.5 30.4-13 0-14.4-1.1-14.4-30.4 0-28.8.7-31.8 14.4-31.8zm117.4 61.6c-8.8 0-16.4-3.6-22.8-17.6h-2.5l.4 20.9c3.8 1.1 15.3 3.4 23.9 3.4 17.2 0 26.5-8.4 26.5-22.7 0-28.1-36.8-21-36.8-36.5 0-5.9 4.9-8.4 10.8-8.4 8.3 0 13.6 2.9 19.2 15.3h2.5l-1-20.2S759.6 35 752.2 35c-18.9 0-27.6 7-27.6 22 0 29.4 36.2 20.7 36.2 36.5 0 5.6-4.8 9-10.9 9zm250.3-76.8h4.8c5.6 0 6-.4 6-6v-4.9c0-5.6-.4-6-6-6h-4.8c-5.6 0-6 .4-6 6v4.9c0 5.5.4 6 6 6zm92.6 69.8V53.2c0-15-10.8-18.3-19.9-18.3-8.3 0-20.2 3.8-26.5 9.4v-8h-27.3v2.5c10.2 2.7 10.5 3.1 10.5 9.7v47c0 5.2-.2 6.6-5.5 8.3-1.6.5-3.8.5-5 .1-5.6-1.8-5.9-3.1-5.9-8.4V36.3h-30.1v2.5c10.2 2.7 10.5 3.1 10.5 9.7v47c0 6.6-.3 7-10.5 9.7v2.5h76.6v-2.5c-10.1-2.7-10.5-3.2-10.5-9.7V46.4c5.3-.4 10.5-.8 15.7-.8 7.4 0 8.3 1.7 8.3 8.7v41.3c0 6.6-.3 7-10.5 9.7v2.5h38.5v-2.5c-8.1-2.5-8.4-3.4-8.4-9.8zm52.9-4.3h-24.2c-4.8 0-6.6-2-6.6-4.6 0-2.1.4-4.6 1-6.9 4.5 1.1 9.4 1.4 16.6 1.4 23.1 0 31.1-4.1 31.1-21.8 0-8.1-2.1-13.9-6.3-17.6l14-2.8v-2.5c-12.5-.7-28.6-1.4-38.8-1.4-16.5 0-31.3 3.5-31.3 24.4 0 9.5 2.5 15.4 9.4 18.6-7 7.3-8.5 12.4-8.3 18.5.2 4.1 2.3 8.1 7.1 11.1-4.2 5.6-7.1 13-7.1 17.6 0 8 4.2 11.1 19.5 11.1h22c16.7 0 22.7-3.9 22.7-24.4-.1-16.3-4.7-20.7-20.8-20.7zm-13.3-49.9c8 0 10.2 1.7 10.2 17.5 0 14.7-1 15.8-10.2 15.8-8.3 0-10.2-1.1-10.2-15.8 0-16.8 2.4-17.5 10.2-17.5zm6.6 88.3h-11.8c-10.6 0-13.9-.8-13.9-8.8a236.28 236.28 0 0 1 .3-11.9c1.5.3 3.2.4 5 .4h19.7c11.3 0 14 1.3 14 10.5.1 8.6-1.9 9.8-13.3 9.8zM802.6 69.9c-16 0-21.8 5.2-21.8 19.9 0 15.1 5.5 19.3 18.5 19.3 8.4 0 16.8-2.8 21.3-5.6 2 4.2 6.7 5.6 13.6 5.6 2.8 0 5.7-.2 9-.6 2-.2 4.2-.8 7.4-.8H884v-2.5c-10.1-2.7-10.5-3.2-10.5-9.7V6.9h-30.1v2.5c10.2 2.7 10.5 3.1 10.5 9.7v76.4c0 2.9-.1 4.6-1 5.8-.4.5-.9.9-1.5 1.3-.2.1-.4.2-.5.3-.3.2-.7.3-1.1.5-2 .6-3.9.5-4.9.4-4.6-.3-5.7-3.5-5.7-8.6V56.3c0-14-8-21.4-21.8-21.4-18.3 0-34.7 5.3-34.7 19 0 6 2.7 9.4 9.7 9.4s9.8-4.2 9.8-9.8c0-5.5-2-7-9.1-8.1V45s7.4-.4 12.6-.4c13 0 14 .6 14 14.6V70h-17.1zm16.9 28.4v1.1c-2.7.8-5.7 1.3-8.5 1.3-7.4 0-9.8-1.7-9.8-11.2 0-12.9.7-13.9 18.3-14v22.8z"/><use xlink:href="#B" x="423.6"/><use xlink:href="#B" x="396.9"/><path d="M1262.2 95.5V36.3h-30.1v2.5c10.2 2.7 10.5 3.1 10.5 9.7v47c0 4.7-.3 6.3-4.1 7.7-1.4.5-4.5 1.2-7.4 0-2.9-1.5-3.5-3.8-3.5-8.1V56.3c0-14-8-21.4-21.8-21.4-18.3 0-34.7 5.3-34.7 19 0 6 2.7 9.4 9.7 9.4s9.8-4.2 9.8-9.8c0-5.5-2-7-9.1-8.1V45s7.4-.4 12.6-.4c13 0 14 .6 14 14.6V70h-16.9c-16 0-21.8 5.2-21.8 19.9 0 15.1 5.5 19.3 18.5 19.3 8.4 0 16.8-2.8 21.3-5.6 2 4.2 6.7 5.6 13.6 5.6 4.5 0 11.7-1.4 16.6-1.4h33.5v-2.5c-10.3-2.8-10.7-3.4-10.7-9.8zm-54.1 2.8v1.1c-2.7.8-5.7 1.3-8.5 1.3-7.4 0-9.8-1.7-9.8-11.2 0-12.9.7-13.9 18.3-14v22.8zm72.5-62h-5.6c-6.6 0-7.1.5-7.1 7.1v5.8c0 6.6.5 7.1 7.1 7.1h5.6c6.6 0 7.1-.5 7.1-7.1v-5.8c0-6.6-.4-7.1-7.1-7.1zM333.9 179.6c-5.6-2.8-11.8-4.8-17.1-7-10.5-4.9-13.3-9.9-13.3-16.8 0-7.7 6-11.8 14.7-11.8 11.1 0 18.9 5.2 25.9 23h3.2v-27.2s-11.6-2.8-25.6-2.8c-22.5 0-35.7 11.9-35.7 29.5 0 10.8 6.3 19 16.7 24.2 4.8 2.1 10.4 4.1 15 6 13.7 5.6 17.1 10.5 17.1 19.2 0 7.8-5.3 13.4-15.8 13.4-9.8 0-23.1-4.6-28.3-27h-3.9l.8 30.8c8.4 1.8 18.2 3.2 26.6 3.2 21.8 0 37.6-7.1 37.6-31.8 0-10.9-6-19.2-17.9-24.9zm45 32.1v-42.3l15.7-3.4v-2.5h-15.7v-20.2h-2.5l-17.1 12.9v62.6c0 12.9 4.5 17.4 16.5 17.4 9.2 0 16.7-3.8 21.2-6.9V227h-4c-13.9 0-14.1-.8-14.1-15.3zm52-49.5c-25.2 0-35.4 4.9-35.4 37.8 0 32 10.4 36.4 35.4 36.4 25.2 0 33.4-3.6 33.4-36.4s-7.4-37.8-33.4-37.8zm0 68.2c-13 0-14.4-1.1-14.4-30.4 0-28.8.7-31.8 14.4-31.8 11.9 0 12.5 3.2 12.5 31.8-.1 29.2-1.4 30.4-12.5 30.4zm97-4.5h-18.1c-19 0-19.3-3.9-19.3-30 0-20.2 1.7-24.1 10.6-24.1 7.8 0 11.8 0 19.7.4v.4c-9.2.7-9.7 4.5-9.7 8.1 0 6.6 3.4 9.7 9.5 9.7 7.3 0 9.9-2.5 9.9-10.1 0-9.9-11.9-18.2-28.8-18.2-16 0-32.3 4.8-32.3 36.5 0 25.3 9.2 37.6 31.9 37.6 8.8 0 18-1.4 26.5-9.1v-1.2zm150.7-3.1v-42.3c0-15-10.8-18.3-19.9-18.3-7.1 0-17.1 2.8-23.7 7.3v-35.3h-30v2.5c10.2 2.7 10.5 3.1 10.5 9.7v76.4c0 4.6-.1 6.2-3.6 7.6-1.3.6-3.4 1.3-5.8.7-2.1-.6-3.5-1.7-5.3-4.1l-26-37.9s11.8-13.6 16-17.5c2.8-2.7 5-4.3 11.5-5v-2.9h-26v2.9c5.6.1 8.1.7 8.1 2.2 0 .7-.8 1.8-2.4 3.2l-24.3 25.1 20.2 30.4c.6 1 1 1.7 1 2.2 0 1.5-2.7 1.8-8.1 3.1v2.2h74.8v-2.5c-10.1-2.7-10.5-3.2-10.5-9.7v-49.1c5.3-.4 10.5-.8 15.7-.8 7.4 0 8.3 1.7 8.3 8.7v41.3c0 6.6-.3 7-10.5 9.7v2.5h40.6v-2.5c-10.2-2.8-10.6-3.4-10.6-9.8zm44.6-60.6c-25.2 0-35.4 4.9-35.4 37.8 0 32 10.4 36.4 35.4 36.4 25.2 0 33.4-3.6 33.4-36.4s-7.4-37.8-33.4-37.8zm0 68.2c-13 0-14.4-1.1-14.4-30.4 0-28.8.7-31.8 14.4-31.8 11.9 0 12.5 3.2 12.5 31.8-.1 29.2-1.3 30.4-12.5 30.4zm186.4-7.6l-.1-42.4c0-15-10.5-18.2-19.6-18.2-7.6 0-18.3 3.1-24.9 7.8-3.4-6.9-10.9-7.8-17.8-7.8-8.1 0-19.6 3.4-26 8.8v-7.4h-27.3v2.5c10.2 2.7 10.5 3.1 10.5 9.7l-.1 47c0 5.5-.2 6.7-6.3 8.5-1.7.5-4.4.4-6.1-.1-5.8-1.8-6.1-3.1-6.1-8.4v-88.6h-30.1v2.5c10.2 2.7 10.5 3.1 10.5 9.7v76.4c0 6.6-.3 7-10.5 9.7v2.5h78.7v-2.5c-10.1-2.7-10.5-3.2-10.5-9.7l-.1-49.3c5.3-.6 10.5-.8 15.5-.8 7.4 0 8.3 1.7 8.3 8.4l-.1 41.7c0 6.6-.3 7-10.5 9.7v2.5h40.6v-2.5c-10.1-2.7-10.5-3.2-10.5-9.7L867 179c0-2.1-.1-3.9-.6-5.5 5.3-.4 10.5-.8 15.7-.8 7.4 0 8.3 1.7 8.3 8.4l-.1 41.7c0 6.6-.3 7-10.5 9.7v2.5h40.6v-2.5c-10.3-2.7-10.8-3.3-10.8-9.7zm-353.1 0v-88.6h-30.1v2.5c10.2 2.7 10.5 3.1 10.5 9.7v76.4c0 6.6-.3 7-10.5 9.7v2.5H567v-2.5c-10.1-2.7-10.5-3.3-10.5-9.7zM92.3 10.1v62.5h81.9v162.3h62.6V10.1zm-80.4 0v224.8h144.5v-62.6H74.5V10.1z"/></g><path d="M92.3 90.5h64v64h-64z" fill="#e30613"/><defs ><path id="B" d="M399.8 26.6h4.8c5.6 0 6-.4 6-6v-4.9c0-5.6-.4-6-6-6h-4.8c-5.6 0-6 .4-6 6v4.9c0 5.6.4 6 6 6z"/></defs></svg>